# xmcd
#
# Track frame offsets:
#	183
#	12025
#	23208
#	36430
#	47438
#	56185
#	65463
#	80255
#	94695
#	109213
#	121453
#	133378
#	148503
#	154475
#
# Disc length: 2232 seconds
#
# Revision: 1
# Processed by: cddbd v1.4b41PL1 Copyright (c) Steve Scherf et al.
# Submitted via: audiograbber 1.80
#
DISCID=c308b60e
DTITLE=Duo Cis - Neklesejte na duchnu
DYEAR=1900
DGENRE=
TTITLE0=Mezi plakáty
TTITLE1=Az budem dospelí
TTITLE2=Písen o svátcích vánocních
TTITLE3=Písen o zivote s básníkem
TTITLE4=Blues osamelého domovníka
TTITLE5=Zena v domácnosti
TTITLE6=Poustení draku
TTITLE7=Rébusy
TTITLE8=Zelezná nedele
TTITLE9=Písen o mure
TTITLE10=Neco je ve vzduchu
TTITLE11=K veci
TTITLE12=Podzimní
TTITLE13=Radost zarmoucených
EXTD=
EXTT0=
EXTT1=
EXTT2=
EXTT3=
EXTT4=
EXTT5=
EXTT6=
EXTT7=
EXTT8=
EXTT9=
EXTT10=
EXTT11=
EXTT12=
EXTT13=
PLAYORDER=
